<?xml version="1.0" encoding="UTF-8" standalone="no"?>
<!DOCTYPE svg PUBLIC "-//W3C//DTD SVG 1.1//EN" "http://www.w3.org/Graphics/SVG/1.1/DTD/svg11.dtd">
<svg version="1.1" xmlns="http://www.w3.org/2000/svg" xmlns:xlink="http://www.w3.org/1999/xlink" preserveAspectRatio="xMidYMid meet" viewBox="0 0 640 640" width="35" height="35"><defs><path d="M110.99 362.65L114.57 362.84L118.14 363.12L121.7 363.47L125.24 363.89L128.76 364.39L132.27 364.97L135.76 365.62L139.22 366.35L142.67 367.15L146.09 368.02L149.5 368.97L152.87 369.99L156.23 371.08L159.55 372.24L162.85 373.47L166.12 374.77L169.36 376.14L172.57 377.59L175.75 379.1L178.9 380.67L182.01 382.32L185.09 384.03L188.13 385.81L191.13 387.66L194.09 389.57L197.02 391.55L199.9 393.59L202.75 395.7L205.55 397.87L208.3 400.1L211.02 402.4L213.68 404.75L216.3 407.17L218.87 409.65L221.39 412.19L223.86 414.8L226.28 417.46L228.65 420.18L267.32 465.61L267.91 466.29L268.52 466.95L269.13 467.6L269.76 468.23L270.4 468.85L271.06 469.45L271.72 470.04L272.4 470.61L273.08 471.17L273.78 471.71L274.49 472.24L275.21 472.74L275.94 473.24L276.68 473.71L277.43 474.17L278.18 474.62L278.95 475.05L279.73 475.46L280.51 475.85L281.3 476.23L282.1 476.58L282.91 476.93L283.73 477.25L284.55 477.56L285.38 477.85L286.21 478.12L287.06 478.37L287.9 478.61L288.76 478.83L289.62 479.03L290.48 479.21L291.35 479.37L292.22 479.51L293.1 479.64L293.98 479.75L294.87 479.83L295.76 479.9L296.65 479.95L297.55 479.98L298.45 479.99L383.78 479.99L385.68 480.03L387.56 480.14L389.43 480.33L391.27 480.59L393.09 480.93L394.88 481.33L396.64 481.81L398.38 482.35L400.09 482.96L401.76 483.63L403.4 484.36L405.01 485.16L406.59 486.01L408.12 486.93L409.62 487.9L411.07 488.92L412.49 490L413.86 491.14L415.18 492.32L416.46 493.55L417.7 494.83L418.88 496.16L420.01 497.53L421.09 498.94L422.12 500.4L423.09 501.89L424 503.43L424.86 505L425.65 506.61L426.39 508.25L427.06 509.93L427.66 511.63L428.21 513.37L428.68 515.14L429.08 516.93L429.42 518.75L429.68 520.59L429.87 522.45L429.99 524.33L430.03 526.24L430.02 526.81L430.01 527.38L429.99 527.95L429.97 528.52L429.94 529.09L429.9 529.65L429.86 530.22L429.8 530.78L429.75 531.34L429.68 531.89L429.61 532.45L429.53 533L429.44 533.55L429.35 534.1L429.26 534.65L429.15 535.19L429.04 535.73L428.92 536.27L428.8 536.81L428.67 537.35L428.54 537.88L428.39 538.41L428.25 538.94L428.09 539.46L427.93 539.98L427.77 540.5L427.59 541.02L427.42 541.54L427.23 542.05L427.04 542.56L426.85 543.06L426.65 543.57L426.44 544.07L426.23 544.57L426.01 545.06L425.78 545.55L425.55 546.04L425.32 546.53L425.08 547.01L424.83 547.49L526.24 547.49L528.15 547.53L530.03 547.64L531.9 547.83L533.74 548.09L535.55 548.43L537.35 548.83L539.11 549.31L540.85 549.85L542.55 550.46L544.23 551.13L545.87 551.86L547.48 552.66L549.05 553.51L550.59 554.43L552.09 555.4L553.54 556.42L554.96 557.5L556.33 558.63L557.65 559.82L558.93 561.05L560.17 562.33L561.35 563.65L562.48 565.03L563.56 566.44L564.59 567.9L565.56 569.39L566.47 570.93L567.32 572.5L568.12 574.11L568.85 575.75L569.53 577.43L570.13 579.13L570.67 580.87L571.15 582.64L571.55 584.43L571.89 586.24L572.15 588.09L572.34 589.95L572.46 591.83L572.5 593.74L572.49 594.66L572.46 595.59L572.42 596.51L572.35 597.42L572.27 598.33L572.17 599.24L572.06 600.15L571.93 601.05L571.78 601.95L571.61 602.84L571.42 603.73L571.22 604.61L571 605.48L570.77 606.36L570.51 607.22L570.24 608.08L569.96 608.93L569.65 609.78L569.33 610.62L569 611.46L568.65 612.29L568.28 613.11L567.89 613.92L567.49 614.73L567.07 615.53L566.64 616.32L566.19 617.1L565.73 617.87L565.25 618.64L564.75 619.4L564.24 620.15L563.71 620.89L563.17 621.62L562.61 622.34L562.04 623.05L561.45 623.75L560.85 624.44L560.23 625.12L559.6 625.79L558.95 626.45L558.29 627.1L557.62 627.74L556.94 628.35L556.24 628.96L555.54 629.54L554.83 630.12L554.11 630.68L553.38 631.22L552.64 631.74L551.89 632.26L551.13 632.75L550.37 633.23L549.59 633.7L548.81 634.15L548.02 634.58L547.22 635L546.42 635.4L545.6 635.78L544.78 636.15L543.96 636.5L543.12 636.84L542.28 637.16L541.43 637.46L540.58 637.75L539.72 638.02L538.86 638.27L537.98 638.51L537.11 638.72L536.23 638.93L535.34 639.11L534.45 639.28L533.55 639.43L532.65 639.56L531.75 639.68L530.84 639.78L529.93 639.86L529.01 639.92L528.1 639.96L527.17 639.99L526.25 640L526.24 640L210.86 639.98L208.19 639.97L205.53 639.91L202.87 639.82L200.21 639.69L197.56 639.53L194.91 639.32L192.26 639.09L189.63 638.81L186.99 638.5L184.37 638.16L181.75 637.78L179.13 637.36L176.53 636.91L173.93 636.42L171.33 635.89L168.75 635.33L166.18 634.74L163.61 634.11L161.05 633.44L158.5 632.74L155.97 632.01L153.44 631.24L150.92 630.43L148.41 629.59L145.92 628.72L143.44 627.81L140.96 626.87L138.5 625.89L136.06 624.88L133.62 623.84L131.2 622.76L128.8 621.65L126.41 620.5L124.03 619.32L121.67 618.11L119.32 616.86L116.98 615.58L114.67 614.27L112.37 612.93L110.08 611.55L5.97 547.71L5.7 547.54L5.43 547.36L5.16 547.17L4.91 546.98L4.65 546.78L4.41 546.57L4.16 546.36L3.93 546.15L3.7 545.92L3.48 545.7L3.26 545.47L3.05 545.23L2.85 544.99L2.65 544.74L2.46 544.49L2.27 544.23L2.09 543.97L1.92 543.7L1.76 543.43L1.6 543.16L1.45 542.88L1.31 542.6L1.17 542.32L1.04 542.03L0.92 541.74L0.8 541.44L0.7 541.14L0.6 540.84L0.5 540.54L0.42 540.23L0.34 539.92L0.27 539.61L0.21 539.3L0.16 538.98L0.11 538.67L0.07 538.35L0.05 538.03L0.02 537.7L0.01 537.38L0.01 537.05L0.01 374.99L0.02 374.48L0.05 373.97L0.1 373.46L0.17 372.96L0.26 372.47L0.37 371.99L0.5 371.51L0.64 371.04L0.81 370.58L0.99 370.13L1.19 369.68L1.4 369.25L1.63 368.82L1.88 368.41L2.14 368L2.42 367.61L2.71 367.23L3.02 366.86L3.34 366.5L3.67 366.15L4.01 365.82L4.37 365.5L4.74 365.19L5.13 364.9L5.52 364.63L5.92 364.36L6.34 364.12L6.76 363.89L7.2 363.67L7.64 363.47L8.1 363.29L8.56 363.13L9.03 362.98L9.5 362.85L9.99 362.74L10.48 362.65L10.98 362.58L11.48 362.53L11.99 362.5L12.51 362.49L103.79 362.49L107.4 362.53L110.99 362.65ZM25.01 530.06L123.15 590.24L125.14 591.44L127.14 592.61L129.16 593.75L131.19 594.86L133.23 595.95L135.29 597L137.36 598.03L139.44 599.03L141.53 599.99L143.64 600.93L145.76 601.84L147.89 602.72L150.03 603.57L152.18 604.39L154.34 605.18L156.51 605.94L158.69 606.67L160.88 607.37L163.08 608.04L165.29 608.68L167.51 609.29L169.74 609.87L171.97 610.42L174.21 610.94L176.46 611.42L178.71 611.88L180.98 612.31L183.25 612.7L185.52 613.06L187.8 613.4L190.09 613.7L192.38 613.97L194.68 614.2L196.98 614.41L199.28 614.59L201.59 614.73L203.9 614.84L206.22 614.92L208.54 614.97L210.86 614.99L526.24 615L526.67 615L527.09 614.99L527.52 614.97L527.94 614.94L528.36 614.9L528.77 614.85L529.19 614.8L529.6 614.74L530.01 614.67L530.42 614.59L530.83 614.51L531.24 614.42L531.64 614.32L532.04 614.21L532.44 614.09L532.83 613.97L533.22 613.84L533.61 613.7L534 613.55L534.38 613.4L534.76 613.23L535.14 613.06L535.51 612.89L535.88 612.7L536.25 612.51L536.61 612.31L536.97 612.11L537.33 611.89L537.68 611.67L538.03 611.44L538.37 611.21L538.71 610.97L539.05 610.72L539.38 610.46L539.71 610.2L540.03 609.93L540.35 609.65L540.66 609.37L540.97 609.08L541.27 608.78L541.57 608.48L541.86 608.17L542.14 607.85L542.42 607.54L542.69 607.21L542.95 606.89L543.21 606.56L543.46 606.22L543.7 605.88L543.94 605.54L544.16 605.19L544.39 604.84L544.6 604.48L544.81 604.12L545 603.76L545.2 603.39L545.38 603.02L545.56 602.65L545.73 602.27L545.89 601.89L546.04 601.51L546.19 601.12L546.33 600.73L546.46 600.34L546.58 599.94L546.7 599.55L546.81 599.15L546.91 598.74L547 598.34L547.09 597.93L547.16 597.52L547.23 597.11L547.29 596.7L547.35 596.28L547.39 595.86L547.43 595.45L547.46 595.03L547.48 594.6L547.49 594.18L547.49 593.75L547.47 592.88L547.42 592.01L547.33 591.16L547.21 590.31L547.06 589.47L546.87 588.65L546.66 587.84L546.41 587.04L546.13 586.25L545.82 585.48L545.48 584.73L545.12 583.99L544.72 583.26L544.3 582.56L543.86 581.87L543.39 581.2L542.89 580.55L542.37 579.92L541.83 579.31L541.26 578.72L540.67 578.16L540.06 577.61L539.43 577.09L538.78 576.6L538.12 576.12L537.43 575.68L536.72 575.26L536 574.86L535.26 574.5L534.51 574.16L533.74 573.85L532.95 573.57L532.15 573.33L531.34 573.11L530.52 572.92L529.68 572.77L528.84 572.65L527.98 572.56L527.12 572.51L526.24 572.49L248.72 572.49L247.7 572.48L246.67 572.46L245.65 572.42L244.63 572.37L243.61 572.3L242.59 572.22L241.58 572.13L240.56 572.02L239.55 571.89L238.55 571.76L237.54 571.6L236.54 571.43L235.54 571.25L234.55 571.06L233.55 570.85L232.57 570.62L231.58 570.38L230.6 570.13L229.62 569.86L228.65 569.58L227.68 569.29L226.72 568.98L225.76 568.66L224.8 568.32L223.85 567.97L222.9 567.6L221.96 567.23L221.03 566.83L220.1 566.43L219.17 566.01L218.25 565.58L217.34 565.13L216.43 564.67L215.53 564.2L214.63 563.71L213.74 563.21L212.85 562.7L211.98 562.17L211.1 561.63L210.24 561.07L160.06 528.43L159.85 528.3L159.65 528.16L159.45 528.01L159.25 527.86L159.06 527.71L158.87 527.56L158.68 527.4L158.5 527.24L158.32 527.07L158.14 526.9L157.97 526.73L157.8 526.55L157.63 526.37L157.47 526.19L157.31 526.01L157.16 525.82L157 525.63L156.86 525.44L156.71 525.24L156.57 525.04L156.44 524.84L156.31 524.64L156.18 524.43L156.05 524.22L155.93 524.01L155.82 523.79L155.71 523.58L155.6 523.36L155.5 523.14L155.4 522.91L155.3 522.69L155.21 522.46L155.13 522.23L155.04 522L154.97 521.77L154.9 521.53L154.83 521.3L154.76 521.06L154.7 520.82L154.65 520.58L154.48 519.76L154.38 519.26L154.3 518.75L154.25 518.25L154.21 517.75L154.2 517.25L154.2 516.75L154.23 516.26L154.27 515.77L154.33 515.28L154.42 514.8L154.52 514.32L154.64 513.85L154.77 513.39L154.93 512.93L155.1 512.48L155.29 512.04L155.49 511.6L155.71 511.18L155.95 510.76L156.2 510.35L156.47 509.95L156.75 509.57L157.05 509.19L157.36 508.83L157.69 508.47L158.03 508.13L158.39 507.8L158.75 507.49L159.13 507.19L159.53 506.9L159.93 506.63L160.35 506.37L160.78 506.13L161.22 505.9L161.67 505.7L162.13 505.5L162.6 505.33L163.08 505.18L163.58 505.04L164.08 504.92L164.43 504.85L164.79 504.79L165.14 504.74L165.5 504.7L165.85 504.67L166.2 504.65L166.55 504.64L166.9 504.64L167.25 504.65L167.6 504.67L167.94 504.7L168.28 504.74L168.62 504.79L168.96 504.84L169.29 504.91L169.63 504.99L169.96 505.07L170.28 505.16L170.61 505.27L170.93 505.38L171.24 505.5L171.56 505.62L171.87 505.76L172.17 505.9L172.47 506.05L172.77 506.21L173.06 506.38L173.35 506.56L173.63 506.74L173.91 506.93L174.18 507.13L174.45 507.33L174.71 507.55L174.96 507.77L175.22 507.99L175.46 508.22L175.7 508.46L175.93 508.71L176.16 508.96L176.37 509.22L223.87 540.12L224.43 540.47L224.99 540.82L225.56 541.16L226.13 541.5L226.71 541.82L227.28 542.13L227.87 542.44L228.45 542.74L229.05 543.02L229.64 543.3L230.24 543.57L230.84 543.84L231.44 544.09L232.05 544.33L232.66 544.57L233.28 544.79L233.89 545.01L234.51 545.22L235.14 545.42L235.76 545.61L236.39 545.79L237.02 545.96L237.66 546.13L238.29 546.28L238.93 546.43L239.57 546.56L240.21 546.69L240.86 546.81L241.5 546.91L242.15 547.01L242.8 547.1L243.46 547.18L244.11 547.25L244.76 547.32L245.42 547.37L246.08 547.41L246.74 547.44L247.4 547.47L248.06 547.48L248.72 547.49L383.78 547.49L384.65 547.47L385.52 547.42L386.37 547.33L387.22 547.21L388.05 547.05L388.88 546.87L389.69 546.65L390.49 546.4L391.27 546.12L392.04 545.81L392.79 545.48L393.53 545.11L394.26 544.72L394.96 544.3L395.65 543.85L396.32 543.38L396.97 542.89L397.6 542.37L398.21 541.82L398.79 541.26L399.36 540.67L399.9 540.06L400.42 539.43L400.92 538.78L401.39 538.11L401.84 537.42L402.26 536.72L402.65 535.99L403.02 535.26L403.35 534.5L403.66 533.73L403.94 532.95L404.19 532.15L404.41 531.34L404.59 530.51L404.75 529.68L404.87 528.83L404.96 527.98L405.01 527.11L405.03 526.24L405.01 525.36L404.96 524.5L404.87 523.64L404.75 522.79L404.59 521.96L404.41 521.14L404.19 520.33L403.94 519.53L403.66 518.74L403.35 517.97L403.02 517.22L402.65 516.48L402.26 515.76L401.84 515.05L401.39 514.36L400.92 513.7L400.42 513.05L399.9 512.42L399.36 511.81L398.79 511.22L398.21 510.65L397.6 510.11L396.97 509.59L396.32 509.09L395.65 508.62L394.96 508.18L394.26 507.76L393.53 507.36L392.79 507L392.04 506.66L391.27 506.35L390.49 506.07L389.69 505.82L388.88 505.61L388.05 505.42L387.22 505.27L386.37 505.14L385.52 505.06L384.65 505L383.78 504.99L298.45 504.99L297 504.97L295.56 504.92L294.12 504.85L292.68 504.74L291.25 504.6L289.83 504.42L288.42 504.22L287.01 503.99L285.61 503.73L284.21 503.44L282.83 503.12L281.45 502.77L280.09 502.39L278.73 501.98L277.38 501.54L276.05 501.07L274.72 500.58L273.41 500.05L272.1 499.5L270.82 498.92L269.54 498.32L268.27 497.68L267.02 497.02L265.79 496.33L264.57 495.62L263.36 494.88L262.17 494.11L260.99 493.31L259.84 492.49L258.69 491.65L257.57 490.78L256.46 489.88L255.37 488.96L254.3 488.01L253.25 487.04L252.22 486.04L251.2 485.02L250.21 483.98L249.24 482.91L248.29 481.81L209.61 436.38L207.61 434.08L205.56 431.82L203.46 429.62L201.33 427.46L199.15 425.36L196.93 423.31L194.67 421.31L192.37 419.37L190.03 417.47L187.66 415.63L185.25 413.85L182.8 412.12L180.32 410.44L177.81 408.82L175.27 407.26L172.69 405.75L170.08 404.3L167.44 402.9L164.78 401.56L162.08 400.28L159.36 399.06L156.62 397.9L153.84 396.8L151.05 395.75L148.23 394.77L145.39 393.84L142.53 392.98L139.64 392.18L136.74 391.44L133.82 390.76L130.88 390.15L127.92 389.59L124.95 389.1L121.97 388.68L118.97 388.32L115.95 388.02L112.93 387.79L109.89 387.62L106.84 387.52L103.79 387.49L25.01 387.49L25.01 530.06Z" id="b2XyzB44rO"></path><path d="M431.81 0.03L434.47 0.09L437.13 0.18L439.79 0.31L442.44 0.47L445.09 0.68L447.74 0.91L450.38 1.19L453.01 1.5L455.64 1.84L458.26 2.22L460.87 2.64L463.48 3.1L466.08 3.58L468.67 4.11L471.25 4.67L473.83 5.26L476.39 5.89L478.95 6.56L481.5 7.26L484.04 7.99L486.56 8.76L489.08 9.57L491.59 10.41L494.08 11.28L496.57 12.19L499.04 13.13L501.5 14.11L503.94 15.12L506.38 16.16L508.8 17.24L511.2 18.35L513.59 19.5L515.97 20.68L518.34 21.89L520.68 23.14L523.02 24.42L525.33 25.73L527.63 27.07L529.92 28.45L634.03 92.29L634.3 92.47L634.57 92.65L634.84 92.83L635.1 93.02L635.35 93.22L635.59 93.43L635.84 93.64L636.07 93.85L636.3 94.08L636.52 94.3L636.74 94.54L636.95 94.77L637.15 95.02L637.35 95.26L637.54 95.52L637.73 95.77L637.91 96.03L638.08 96.3L638.24 96.57L638.4 96.84L638.55 97.12L638.69 97.4L638.83 97.68L638.96 97.97L639.08 98.26L639.2 98.56L639.3 98.86L639.4 99.16L639.5 99.46L639.58 99.77L639.66 100.08L639.73 100.39L639.79 100.7L639.84 101.02L639.89 101.33L639.92 101.65L639.95 101.98L639.97 102.3L639.99 102.62L639.99 102.95L639.99 265.01L639.98 265.52L639.95 266.03L639.9 266.54L639.83 267.04L639.74 267.53L639.63 268.01L639.5 268.49L639.35 268.96L639.19 269.42L639.01 269.87L638.81 270.32L638.59 270.75L638.36 271.18L638.12 271.59L637.85 272L637.58 272.39L637.29 272.77L636.98 273.14L636.66 273.5L636.33 273.85L635.98 274.18L635.62 274.5L635.25 274.81L634.87 275.1L634.48 275.37L634.07 275.64L633.66 275.88L633.23 276.11L632.8 276.33L632.36 276.53L631.9 276.71L631.44 276.87L630.97 277.02L630.49 277.15L630.01 277.26L629.52 277.35L629.02 277.42L628.52 277.47L628.01 277.5L627.49 277.51L536.21 277.51L532.6 277.47L529.01 277.35L525.43 277.16L521.86 276.88L518.3 276.53L514.76 276.11L511.24 275.61L507.73 275.03L504.24 274.38L500.78 273.65L497.33 272.85L493.9 271.98L490.5 271.03L487.12 270.01L483.77 268.92L480.45 267.76L477.15 266.53L473.88 265.23L470.64 263.86L467.43 262.41L464.25 260.9L461.1 259.33L457.99 257.68L454.91 255.97L451.87 254.19L448.87 252.34L445.91 250.43L442.98 248.45L440.09 246.41L437.25 244.3L434.45 242.13L431.69 239.9L428.98 237.6L426.32 235.25L423.7 232.83L421.13 230.35L418.6 227.81L416.13 225.2L413.71 222.54L411.35 219.82L372.67 174.39L372.08 173.71L371.48 173.05L370.87 172.4L370.24 171.77L369.6 171.15L368.94 170.55L368.28 169.96L367.6 169.39L366.92 168.83L366.22 168.29L365.51 167.76L364.79 167.26L364.06 166.76L363.32 166.29L362.57 165.83L361.82 165.38L361.05 164.95L360.27 164.54L359.49 164.15L358.7 163.77L357.9 163.42L357.09 163.07L356.27 162.75L355.45 162.44L354.62 162.15L353.79 161.88L352.94 161.63L352.1 161.39L351.24 161.17L350.38 160.97L349.52 160.79L348.65 160.63L347.77 160.49L346.9 160.36L346.01 160.25L345.13 160.17L344.24 160.1L343.34 160.05L342.45 160.02L341.55 160.01L256.22 160.01L254.32 159.97L252.43 159.86L250.57 159.67L248.73 159.41L246.91 159.07L245.12 158.67L243.36 158.19L241.62 157.65L239.91 157.04L238.24 156.37L236.59 155.64L234.99 154.84L233.41 153.99L231.88 153.07L230.38 152.1L228.93 151.08L227.51 150L226.14 148.86L224.81 147.68L223.53 146.45L222.3 145.17L221.12 143.84L219.99 142.47L218.91 141.06L217.88 139.6L216.91 138.11L216 136.57L215.14 135L214.35 133.39L213.61 131.75L212.94 130.07L212.33 128.37L211.79 126.63L211.32 124.86L210.91 123.07L210.58 121.25L210.32 119.41L210.13 117.55L210.01 115.67L209.97 113.76L209.98 113.19L209.99 112.62L210 112.05L210.03 111.48L210.06 110.91L210.1 110.35L210.14 109.78L210.2 109.22L210.25 108.66L210.32 108.11L210.39 107.55L210.47 107L210.55 106.45L210.65 105.9L210.74 105.35L210.85 104.81L210.96 104.27L211.07 103.73L211.2 103.19L211.33 102.65L211.46 102.12L211.61 101.59L211.75 101.06L211.91 100.54L212.07 100.02L212.23 99.5L212.41 98.98L212.58 98.46L212.77 97.95L212.96 97.44L213.15 96.94L213.35 96.43L213.56 95.93L213.77 95.43L213.99 94.94L214.21 94.45L214.44 93.96L214.68 93.47L214.92 92.99L215.16 92.51L113.75 92.51L111.85 92.47L109.97 92.36L108.1 92.17L106.26 91.91L104.45 91.57L102.65 91.17L100.89 90.69L99.15 90.15L97.45 89.54L95.77 88.87L94.13 88.14L92.52 87.34L90.95 86.49L89.41 85.57L87.91 84.6L86.46 83.58L85.04 82.5L83.67 81.37L82.35 80.18L81.07 78.95L79.83 77.67L78.65 76.35L77.52 74.97L76.44 73.56L75.41 72.1L74.44 70.61L73.53 69.07L72.68 67.5L71.88 65.89L71.15 64.25L70.47 62.57L69.87 60.87L69.33 59.13L68.85 57.36L68.45 55.57L68.11 53.76L67.85 51.91L67.66 50.05L67.54 48.17L67.51 46.26L67.51 45.34L67.54 44.41L67.59 43.49L67.65 42.58L67.73 41.67L67.83 40.76L67.94 39.85L68.08 38.95L68.23 38.05L68.39 37.16L68.58 36.28L68.78 35.39L69 34.52L69.24 33.65L69.49 32.78L69.76 31.92L70.04 31.07L70.35 30.22L70.67 29.38L71 28.54L71.36 27.71L71.72 26.89L72.11 26.08L72.51 25.27L72.93 24.48L73.36 23.68L73.81 22.9L74.27 22.13L74.75 21.36L75.25 20.6L75.76 19.85L76.29 19.12L76.83 18.38L77.39 17.66L77.96 16.95L78.55 16.25L79.15 15.56L79.77 14.88L80.4 14.21L81.05 13.55L81.71 12.9L82.38 12.26L83.07 11.65L83.76 11.04L84.46 10.46L85.17 9.88L85.89 9.32L86.62 8.78L87.36 8.26L88.11 7.74L88.87 7.25L89.63 6.77L90.41 6.3L91.19 5.85L91.98 5.42L92.78 5L93.59 4.6L94.4 4.22L95.22 3.85L96.05 3.5L96.88 3.16L97.72 2.84L98.57 2.54L99.42 2.25L100.28 1.98L101.15 1.73L102.02 1.49L102.89 1.28L103.78 1.07L104.66 0.89L105.55 0.72L106.45 0.57L107.35 0.44L108.25 0.32L109.16 0.22L110.07 0.14L110.99 0.08L111.91 0.04L112.83 0.01L113.76 0L113.76 0L429.14 0.02L431.81 0.03ZM112.91 25.02L112.48 25.04L112.06 25.07L111.64 25.1L111.23 25.15L110.81 25.2L110.4 25.26L109.99 25.33L109.58 25.41L109.17 25.49L108.77 25.59L108.36 25.69L107.96 25.79L107.56 25.91L107.17 26.03L106.78 26.17L106.39 26.3L106 26.45L105.62 26.61L105.24 26.77L104.86 26.94L104.49 27.11L104.12 27.3L103.75 27.49L103.39 27.69L103.03 27.89L102.67 28.11L102.32 28.33L101.97 28.56L101.63 28.79L101.29 29.03L100.95 29.28L100.62 29.54L100.29 29.8L99.97 30.07L99.65 30.35L99.34 30.63L99.03 30.92L98.73 31.22L98.43 31.52L98.14 31.83L97.86 32.15L97.58 32.46L97.31 32.79L97.05 33.11L96.79 33.44L96.54 33.78L96.3 34.12L96.06 34.46L95.84 34.81L95.62 35.16L95.4 35.52L95.2 35.88L95 36.24L94.8 36.61L94.62 36.98L94.44 37.35L94.27 37.73L94.11 38.11L93.96 38.49L93.81 38.88L93.67 39.27L93.54 39.66L93.42 40.06L93.3 40.45L93.19 40.85L93.09 41.26L93 41.66L92.91 42.07L92.84 42.48L92.77 42.89L92.71 43.3L92.65 43.72L92.61 44.14L92.57 44.56L92.54 44.98L92.52 45.4L92.51 45.82L92.51 46.25L92.52 47.12L92.58 47.99L92.66 48.85L92.78 49.69L92.94 50.53L93.12 51.35L93.34 52.17L93.59 52.97L93.87 53.75L94.18 54.52L94.52 55.28L94.88 56.02L95.27 56.74L95.69 57.44L96.14 58.13L96.61 58.8L97.11 59.45L97.63 60.08L98.17 60.69L98.74 61.28L99.32 61.85L99.93 62.39L100.56 62.91L101.21 63.41L101.88 63.88L102.57 64.33L103.28 64.74L104 65.14L104.74 65.5L105.49 65.84L106.26 66.15L107.05 66.43L107.84 66.68L108.65 66.9L109.48 67.08L110.31 67.24L111.16 67.36L112.01 67.44L112.88 67.5L113.76 67.51L391.28 67.51L392.3 67.52L393.33 67.54L394.35 67.58L395.37 67.63L396.39 67.7L397.41 67.78L398.42 67.87L399.44 67.98L400.45 68.11L401.45 68.25L402.46 68.4L403.46 68.57L404.46 68.75L405.45 68.95L406.44 69.16L407.43 69.38L408.42 69.62L409.4 69.87L410.38 70.14L411.35 70.42L412.32 70.72L413.28 71.02L414.24 71.35L415.2 71.68L416.15 72.03L417.1 72.4L418.04 72.78L418.97 73.17L419.9 73.57L420.83 73.99L421.75 74.43L422.66 74.87L423.57 75.33L424.47 75.81L425.37 76.29L426.26 76.79L427.15 77.31L428.02 77.83L428.89 78.37L429.76 78.93L443.39 87.79L443.81 88.08L444.23 88.39L444.62 88.7L445 89.04L445.36 89.38L445.71 89.73L446.04 90.1L446.35 90.48L446.65 90.87L446.93 91.27L447.2 91.68L447.44 92.09L447.67 92.52L447.89 92.95L448.08 93.39L448.26 93.84L448.42 94.29L448.57 94.75L448.69 95.21L448.8 95.68L448.89 96.15L448.97 96.63L449.02 97.1L449.06 97.58L449.07 98.06L449.07 98.55L449.05 99.03L449.01 99.51L448.96 99.99L448.88 100.47L448.79 100.95L448.67 101.43L448.54 101.9L448.39 102.37L448.21 102.84L448.02 103.3L447.81 103.75L447.58 104.2L447.32 104.65L447.05 105.09L446.76 105.51L446.46 105.92L446.14 106.32L445.81 106.7L445.47 107.06L445.11 107.41L444.74 107.74L444.36 108.05L443.97 108.35L443.58 108.63L443.17 108.89L442.75 109.14L442.33 109.37L441.89 109.59L441.45 109.78L441.01 109.96L440.55 110.12L440.09 110.27L439.63 110.39L439.16 110.5L438.69 110.59L438.22 110.66L437.74 110.72L437.26 110.75L436.78 110.77L436.3 110.77L435.82 110.75L435.33 110.71L434.85 110.66L434.37 110.58L433.89 110.48L433.42 110.37L432.94 110.24L432.47 110.08L432.01 109.91L431.55 109.72L431.09 109.51L430.64 109.27L430.2 109.02L429.76 108.75L416.13 99.88L415.57 99.53L415.01 99.18L414.44 98.84L413.87 98.51L413.29 98.18L412.72 97.87L412.13 97.56L411.55 97.27L410.96 96.98L410.36 96.7L409.76 96.43L409.16 96.17L408.56 95.91L407.95 95.67L407.34 95.43L406.73 95.21L406.11 94.99L405.49 94.78L404.87 94.58L404.24 94.39L403.61 94.21L402.98 94.04L402.35 93.87L401.71 93.72L401.07 93.57L400.43 93.44L399.79 93.31L399.14 93.19L398.5 93.09L397.85 92.99L397.2 92.9L396.55 92.82L395.89 92.75L395.24 92.68L394.58 92.63L393.92 92.59L393.26 92.56L392.6 92.53L391.94 92.52L391.28 92.51L256.22 92.51L255.35 92.53L254.48 92.58L253.63 92.67L252.78 92.79L251.95 92.95L251.12 93.13L250.31 93.35L249.51 93.6L248.73 93.88L247.96 94.19L247.2 94.52L246.47 94.89L245.74 95.28L245.04 95.7L244.35 96.15L243.68 96.62L243.03 97.11L242.4 97.63L241.79 98.18L241.2 98.74L240.64 99.33L240.09 99.94L239.57 100.57L239.08 101.22L238.61 101.89L238.16 102.58L237.74 103.28L237.35 104.01L236.98 104.74L236.65 105.5L236.34 106.27L236.06 107.05L235.81 107.85L235.59 108.66L235.41 109.49L235.25 110.32L235.13 111.17L235.04 112.02L234.99 112.89L234.97 113.76L234.99 114.64L235.04 115.5L235.13 116.36L235.25 117.21L235.41 118.04L235.59 118.86L235.81 119.67L236.06 120.47L236.34 121.26L236.65 122.03L236.98 122.78L237.35 123.52L237.74 124.24L238.16 124.95L238.61 125.64L239.08 126.3L239.57 126.95L240.09 127.58L240.64 128.19L241.2 128.78L241.79 129.35L242.4 129.89L243.03 130.41L243.68 130.91L244.35 131.38L245.04 131.82L245.74 132.24L246.47 132.64L247.2 133L247.96 133.34L248.73 133.65L249.51 133.93L250.31 134.18L251.12 134.39L251.95 134.58L252.78 134.73L253.63 134.86L254.48 134.94L255.35 135L256.22 135.01L341.55 135.01L343 135.03L344.44 135.08L345.88 135.15L347.32 135.26L348.75 135.4L350.17 135.58L351.58 135.78L352.99 136.01L354.39 136.27L355.79 136.56L357.17 136.88L358.55 137.23L359.91 137.61L361.27 138.02L362.62 138.46L363.95 138.93L365.28 139.42L366.59 139.95L367.89 140.5L369.18 141.08L370.46 141.68L371.72 142.32L372.97 142.98L374.21 143.67L375.43 144.38L376.64 145.12L377.83 145.89L379 146.69L380.16 147.51L381.31 148.35L382.43 149.22L383.54 150.12L384.63 151.04L385.7 151.99L386.75 152.96L387.78 153.96L388.8 154.98L389.79 156.03L390.76 157.09L391.71 158.19L430.38 203.62L432.39 205.92L434.44 208.18L436.54 210.38L438.67 212.54L440.85 214.64L443.07 216.69L445.33 218.69L447.63 220.63L449.97 222.53L452.34 224.37L454.75 226.15L457.2 227.88L459.67 229.56L462.19 231.18L464.73 232.74L467.31 234.25L469.92 235.7L472.55 237.1L475.22 238.44L477.91 239.72L480.64 240.94L483.38 242.1L486.15 243.2L488.95 244.25L491.77 245.23L494.61 246.16L497.47 247.02L500.36 247.82L503.26 248.56L506.18 249.24L509.12 249.86L512.08 250.41L515.05 250.9L518.03 251.32L521.03 251.68L524.05 251.98L527.07 252.21L530.11 252.38L533.16 252.48L536.21 252.51L614.99 252.51L614.99 109.95L516.85 49.77L514.86 48.57L512.86 47.4L510.84 46.25L508.81 45.14L506.77 44.05L504.71 43L502.64 41.97L500.56 40.98L498.47 40.01L496.36 39.07L494.24 38.16L492.11 37.28L489.97 36.43L487.82 35.61L485.66 34.82L483.49 34.06L481.31 33.33L479.12 32.63L476.92 31.96L474.71 31.32L472.49 30.71L470.26 30.13L468.03 29.58L465.79 29.07L463.54 28.58L461.28 28.12L459.02 27.7L456.75 27.3L454.48 26.94L452.2 26.61L449.91 26.31L447.62 26.04L445.32 25.8L443.02 25.59L440.72 25.41L438.41 25.27L436.1 25.16L433.78 25.08L431.46 25.03L429.14 25.02L113.76 25L113.33 25L112.91 25.02Z" id="aBFDuMsFo"></path><path d="M334.33 200L336.84 200.14L339.36 200.34L341.87 200.58L344.39 200.87L346.9 201.21L349.41 201.6L351.92 202.04L354.43 202.53L356.93 203.07L359.43 203.66L361.92 204.31L364.4 205L366.86 205.73L369.3 206.52L371.71 207.34L374.11 208.22L376.48 209.13L378.83 210.1L381.15 211.1L383.45 212.15L385.72 213.24L387.97 214.38L390.2 215.56L392.39 216.77L394.56 218.04L396.71 219.34L398.82 220.68L400.91 222.07L402.97 223.49L405 224.96L407 226.46L408.97 228L410.91 229.58L412.82 231.2L414.7 232.86L416.54 234.56L418.35 236.29L420.14 238.06L421.88 239.87L423.59 241.71L425.27 243.59L426.92 245.5L428.53 247.45L430.1 249.44L431.63 251.46L433.13 253.51L434.6 255.59L436.02 257.71L437.41 259.87L438.76 262.05L440.06 264.27L441.33 266.51L442.55 268.77L443.72 271.05L444.84 273.34L445.92 275.65L446.94 277.97L447.92 280.31L448.86 282.67L449.74 285.03L450.58 287.42L451.36 289.81L452.1 292.21L452.79 294.63L453.44 297.06L454.03 299.49L454.58 301.94L455.08 304.39L455.52 306.86L455.92 309.33L456.28 311.81L456.58 314.29L456.83 316.78L457.03 319.28L457.19 321.78L457.3 324.28L457.35 326.79L457.36 329.3L457.32 331.81L457.22 334.33L457.08 336.84L456.89 339.36L456.65 341.87L456.36 344.39L456.02 346.9L455.63 349.41L455.19 351.92L454.7 354.43L454.16 356.93L453.56 359.43L452.92 361.92L452.23 364.4L451.49 366.86L450.71 369.3L449.88 371.71L449.01 374.11L448.09 376.48L447.13 378.83L446.13 381.15L445.08 383.45L443.99 385.72L442.85 387.97L441.67 390.2L440.45 392.39L439.19 394.56L437.89 396.71L436.55 398.82L435.16 400.91L433.74 402.97L432.27 405L430.77 407L429.23 408.97L427.64 410.91L426.02 412.82L424.37 414.7L422.67 416.54L420.94 418.35L419.17 420.13L417.36 421.88L415.52 423.59L413.64 425.27L411.72 426.92L409.77 428.53L407.79 430.1L405.77 431.63L403.72 433.13L401.63 434.6L399.51 436.02L397.36 437.41L395.18 438.76L392.96 440.06L391.47 440.91L389.97 441.74L388.46 442.55L386.95 443.33L385.43 444.09L383.9 444.84L382.36 445.56L380.82 446.26L379.27 446.94L377.71 447.6L376.15 448.23L374.58 448.85L373 449.44L371.42 450.02L369.83 450.57L368.24 451.1L366.64 451.61L365.04 452.1L363.43 452.56L361.82 453.01L360.2 453.43L358.58 453.83L356.95 454.21L355.32 454.57L353.69 454.91L352.05 455.22L350.41 455.52L348.76 455.79L347.12 456.04L345.46 456.27L343.81 456.48L342.15 456.66L340.49 456.83L338.83 456.97L337.17 457.09L335.5 457.19L333.84 457.26L332.17 457.32L330.5 457.35L328.82 457.36L327.99 457.36L327.15 457.35L326.31 457.34L325.47 457.32L324.63 457.29L323.79 457.26L322.95 457.23L322.11 457.18L321.27 457.14L320.43 457.09L319.59 457.03L318.75 456.96L317.91 456.89L317.07 456.82L316.23 456.74L315.39 456.65L314.55 456.56L313.71 456.47L312.87 456.36L312.03 456.25L311.19 456.14L310.35 456.02L309.51 455.9L308.67 455.77L307.84 455.63L307 455.49L306.16 455.34L305.32 455.19L304.49 455.03L303.65 454.87L302.81 454.7L301.98 454.52L301.14 454.34L300.31 454.16L299.47 453.96L298.64 453.77L297.8 453.56L296.97 453.35L296.14 453.14L295.31 452.92L292.83 452.23L290.37 451.49L287.93 450.71L285.51 449.88L283.12 449.01L280.75 448.09L278.4 447.13L276.08 446.13L273.78 445.08L271.51 443.98L269.26 442.85L267.03 441.67L264.84 440.45L262.67 439.19L260.52 437.89L258.41 436.54L256.32 435.16L254.26 433.74L252.23 432.27L250.23 430.77L248.26 429.22L246.32 427.64L244.41 426.02L242.53 424.36L240.69 422.67L238.87 420.93L237.09 419.16L235.35 417.36L233.63 415.51L231.96 413.64L230.31 411.72L228.7 409.77L227.13 407.79L225.59 405.77L224.09 403.72L222.63 401.63L221.21 399.51L219.82 397.36L218.47 395.18L217.16 392.96L215.9 390.72L214.68 388.46L213.51 386.18L212.39 383.89L211.31 381.58L210.28 379.25L209.3 376.91L208.37 374.56L207.49 372.19L206.65 369.81L205.87 367.42L205.13 365.01L204.43 362.6L203.79 360.17L203.2 357.73L202.65 355.29L202.15 352.83L201.71 350.37L201.31 347.9L200.95 345.42L200.65 342.94L200.4 340.45L200.19 337.95L200.04 335.45L199.93 332.95L199.88 330.44L199.87 327.93L199.91 325.42L200 322.9L200.15 320.39L200.34 317.87L200.58 315.35L200.87 312.84L201.21 310.33L201.6 307.81L202.04 305.3L202.53 302.8L203.07 300.3L203.67 297.8L204.31 295.31L205 292.83L205.73 290.37L206.52 287.93L207.34 285.51L208.22 283.12L209.13 280.75L210.1 278.4L211.1 276.08L212.15 273.78L213.24 271.51L214.38 269.26L215.56 267.03L216.78 264.84L218.04 262.66L219.34 260.52L220.68 258.41L222.07 256.32L223.49 254.26L224.96 252.23L226.46 250.23L228 248.26L229.59 246.32L231.21 244.41L232.86 242.53L234.56 240.69L236.29 238.87L238.06 237.09L239.87 235.35L241.71 233.63L243.59 231.95L245.51 230.31L247.45 228.7L249.44 227.13L251.46 225.59L253.51 224.09L255.6 222.63L257.71 221.21L259.87 219.82L262.05 218.47L264.27 217.16L266.51 215.9L268.77 214.68L271.05 213.51L273.34 212.39L275.65 211.31L277.97 210.28L280.31 209.3L282.67 208.37L285.04 207.49L287.42 206.65L289.81 205.86L292.21 205.12L294.63 204.43L297.06 203.79L299.49 203.2L301.94 202.65L304.4 202.15L306.86 201.7L309.33 201.3L311.81 200.95L314.29 200.65L316.78 200.4L319.28 200.19L321.78 200.04L324.28 199.93L326.79 199.88L329.3 199.87L331.81 199.91L334.33 200ZM325.43 213.31L323.94 213.36L322.44 213.43L320.95 213.52L319.46 213.63L317.97 213.75L316.49 213.9L315 214.07L313.52 214.25L312.04 214.46L310.56 214.68L309.09 214.93L307.62 215.19L306.15 215.47L304.69 215.77L303.23 216.1L301.77 216.44L300.32 216.8L298.87 217.18L297.42 217.57L295.98 217.99L294.55 218.43L293.12 218.88L291.69 219.36L290.27 219.85L288.85 220.37L287.44 220.9L286.03 221.45L284.63 222.02L283.24 222.61L281.85 223.22L280.47 223.85L279.09 224.49L277.72 225.16L276.36 225.84L275 226.55L273.65 227.27L272.31 228.01L270.97 228.77L268.98 229.94L267.03 231.15L265.1 232.39L263.2 233.67L261.33 234.98L259.49 236.32L257.68 237.7L255.91 239.11L254.16 240.55L252.45 242.02L250.76 243.52L249.11 245.06L247.49 246.62L245.91 248.22L244.35 249.84L242.84 251.5L241.35 253.18L239.9 254.89L238.48 256.63L237.1 258.39L235.75 260.18L234.44 262L233.16 263.85L231.92 265.72L230.72 267.61L229.55 269.53L228.42 271.48L227.33 273.45L226.27 275.44L225.26 277.45L224.28 279.49L223.34 281.55L222.44 283.63L221.58 285.73L220.75 287.86L219.97 290L219.23 292.17L218.53 294.35L217.87 296.55L217.25 298.77L216.68 301.01L216.15 303.25L215.66 305.49L215.22 307.73L214.83 309.98L214.48 312.23L214.17 314.48L213.91 316.74L213.7 318.99L213.52 321.24L213.4 323.5L213.31 325.75L213.28 328L213.28 330.25L213.33 332.5L213.43 334.74L213.57 336.98L213.75 339.21L213.98 341.45L214.25 343.67L214.56 345.89L214.92 348.1L215.32 350.31L215.77 352.51L216.26 354.7L216.79 356.89L217.37 359.06L217.98 361.22L218.65 363.38L219.35 365.52L220.1 367.65L220.89 369.78L221.73 371.88L222.61 373.98L223.53 376.06L224.49 378.13L225.5 380.19L226.54 382.23L227.64 384.25L228.77 386.26L229.94 388.25L231.15 390.2L232.39 392.13L233.67 394.03L234.98 395.9L236.32 397.74L237.7 399.54L239.11 401.32L240.55 403.07L242.02 404.78L243.52 406.47L245.06 408.12L246.62 409.74L248.22 411.32L249.84 412.87L251.5 414.39L253.18 415.88L254.89 417.33L256.63 418.75L258.39 420.13L260.18 421.48L262 422.79L263.85 424.07L265.72 425.31L267.61 426.51L269.53 427.68L271.48 428.81L273.45 429.9L275.44 430.95L277.45 431.97L279.49 432.95L281.55 433.89L283.63 434.79L285.73 435.65L287.86 436.47L290 437.26L292.17 438L294.35 438.7L296.55 439.36L298.77 439.98L301.01 440.55L303.25 441.08L305.49 441.57L307.73 442.01L309.98 442.4L312.23 442.75L314.48 443.06L316.74 443.32L318.99 443.53L321.24 443.7L323.5 443.83L325.75 443.91L328 443.95L330.25 443.94L332.5 443.89L334.74 443.8L336.98 443.66L339.21 443.48L341.44 443.25L343.67 442.98L345.89 442.67L348.1 442.31L350.31 441.91L352.51 441.46L354.7 440.97L356.88 440.44L359.06 439.86L361.22 439.24L363.38 438.58L365.52 437.87L367.65 437.13L369.78 436.33L371.88 435.5L373.98 434.62L376.06 433.7L378.13 432.74L380.19 431.73L382.23 430.68L384.25 429.59L386.26 428.46L388.24 427.29L390.2 426.08L392.13 424.84L394.03 423.56L395.9 422.25L397.74 420.91L399.54 419.53L401.32 418.12L403.07 416.68L404.78 415.21L406.47 413.7L408.12 412.17L409.74 410.6L411.32 409.01L412.87 407.38L414.39 405.73L415.88 404.05L417.33 402.34L418.75 400.6L420.13 398.84L421.48 397.04L422.79 395.23L424.06 393.38L425.31 391.51L426.51 389.62L427.68 387.7L428.81 385.75L429.9 383.78L430.95 381.79L431.97 379.78L432.95 377.74L433.89 375.68L434.79 373.6L435.65 371.49L436.47 369.37L437.25 367.23L438 365.06L438.7 362.88L439.36 360.67L439.98 358.45L440.55 356.22L441.08 353.98L441.57 351.74L442.01 349.5L442.4 347.25L442.75 345L443.06 342.75L443.32 340.49L443.53 338.24L443.7 335.98L443.83 333.73L443.91 331.48L443.95 329.23L443.94 326.98L443.89 324.73L443.8 322.49L443.66 320.25L443.48 318.01L443.25 315.78L442.98 313.56L442.67 311.34L442.31 309.12L441.91 306.92L441.46 304.72L440.97 302.53L440.44 300.34L439.86 298.17L439.24 296L438.58 293.85L437.87 291.71L437.13 289.57L436.33 287.45L435.5 285.34L434.62 283.25L433.7 281.16L432.74 279.1L431.73 277.04L430.68 275L429.59 272.98L428.46 270.97L427.29 268.98L426.08 267.02L424.84 265.1L423.56 263.2L422.25 261.33L420.91 259.49L419.53 257.68L418.12 255.91L416.68 254.16L415.21 252.44L413.7 250.76L412.17 249.11L410.6 247.49L409.01 245.91L407.38 244.35L405.73 242.83L404.05 241.35L402.34 239.9L400.6 238.48L398.84 237.1L397.04 235.75L395.23 234.44L393.38 233.16L391.51 231.92L389.61 230.72L387.69 229.55L385.75 228.42L383.78 227.33L381.79 226.27L379.77 225.26L377.74 224.28L375.68 223.34L373.6 222.44L371.49 221.58L369.37 220.75L367.23 219.97L365.06 219.23L362.88 218.53L360.67 217.87L358.45 217.25L357.71 217.05L356.96 216.86L356.22 216.68L355.47 216.49L354.72 216.32L353.97 216.14L353.23 215.98L352.48 215.82L351.73 215.66L350.98 215.51L350.23 215.36L349.48 215.22L348.73 215.08L347.98 214.95L347.23 214.82L346.48 214.7L345.73 214.58L344.98 214.47L344.22 214.37L343.47 214.26L342.72 214.17L341.97 214.08L341.21 213.99L340.46 213.91L339.71 213.83L338.96 213.76L338.2 213.69L337.45 213.63L336.7 213.57L335.95 213.52L335.19 213.47L334.44 213.43L333.69 213.39L332.94 213.36L332.19 213.34L331.43 213.31L330.68 213.3L329.93 213.28L329.18 213.28L328.43 213.27L326.93 213.28L325.43 213.31Z" id="a2xjSW9FP"></path><path d="M301.33 266.81L301.69 266.84L302.05 266.87L302.41 266.91L302.77 266.97L303.13 267.03L303.48 267.1L303.84 267.18L304.19 267.27L304.54 267.37L304.9 267.48L305.24 267.6L305.59 267.73L305.94 267.86L306.28 268.01L306.62 268.17L306.95 268.34L307.29 268.51L307.62 268.7L390.36 316.47L390.69 316.66L391.01 316.86L391.32 317.07L391.63 317.29L391.92 317.51L392.22 317.74L392.5 317.98L392.78 318.22L393.05 318.47L393.31 318.72L393.57 318.98L393.81 319.25L394.05 319.53L394.29 319.8L394.51 320.09L394.73 320.38L394.94 320.67L395.14 320.97L395.33 321.28L395.51 321.59L395.69 321.91L395.86 322.23L396.02 322.55L396.17 322.88L396.31 323.21L396.45 323.55L396.57 323.89L396.69 324.23L396.8 324.58L396.9 324.93L396.99 325.29L397.07 325.65L397.14 326.01L397.2 326.37L397.25 326.74L397.3 327.11L397.33 327.48L397.35 327.86L397.37 328.23L397.37 328.61L397.37 328.99L397.35 329.37L397.33 329.74L397.3 330.12L397.25 330.49L397.2 330.85L397.14 331.22L397.07 331.58L396.99 331.94L396.9 332.29L396.8 332.65L396.69 332.99L396.57 333.34L396.45 333.68L396.31 334.02L396.17 334.35L396.02 334.68L395.86 335L395.69 335.32L395.51 335.64L395.33 335.95L395.14 336.25L394.94 336.55L394.73 336.85L394.51 337.14L394.29 337.42L394.05 337.7L393.81 337.98L393.57 338.24L393.31 338.5L393.05 338.76L392.78 339.01L392.5 339.25L392.22 339.49L391.92 339.72L391.63 339.94L391.32 340.16L391.01 340.36L390.69 340.57L390.36 340.76L307.62 388.53L307.45 388.63L307.29 388.72L307.12 388.81L306.95 388.89L306.79 388.98L306.62 389.06L306.45 389.14L306.28 389.22L306.11 389.29L305.93 389.36L305.76 389.43L305.59 389.5L305.42 389.57L305.24 389.63L305.07 389.69L304.89 389.75L304.72 389.8L304.54 389.86L304.37 389.91L304.19 389.96L304.01 390L303.84 390.05L303.66 390.09L303.48 390.13L303.3 390.17L303.13 390.2L302.95 390.23L302.77 390.26L302.59 390.29L302.41 390.31L302.23 390.34L302.05 390.36L301.87 390.37L301.69 390.39L301.51 390.4L301.33 390.41L301.15 390.42L300.97 390.43L300.79 390.43L300.61 390.43L300.42 390.43L300.24 390.43L300.06 390.42L299.88 390.41L299.7 390.4L299.52 390.39L299.34 390.37L299.16 390.36L298.98 390.34L298.8 390.31L298.62 390.29L298.44 390.26L298.26 390.23L298.09 390.2L297.91 390.17L297.73 390.13L297.55 390.09L297.37 390.05L297.2 390L297.02 389.96L296.84 389.91L296.67 389.86L296.49 389.8L296.32 389.75L296.14 389.69L295.97 389.63L295.79 389.57L295.62 389.5L295.45 389.43L295.28 389.36L295.11 389.29L294.93 389.22L294.76 389.14L294.6 389.06L294.43 388.98L294.26 388.89L294.09 388.81L293.92 388.72L293.76 388.63L293.59 388.53L293.27 388.34L292.95 388.14L292.64 387.93L292.33 387.71L292.03 387.49L291.74 387.26L291.46 387.02L291.18 386.78L290.91 386.53L290.65 386.28L290.39 386.02L290.14 385.75L289.9 385.48L289.67 385.2L289.45 384.91L289.23 384.62L289.02 384.33L288.82 384.03L288.63 383.72L288.44 383.41L288.26 383.09L288.1 382.77L287.94 382.45L287.79 382.12L287.64 381.79L287.51 381.45L287.38 381.11L287.27 380.77L287.16 380.42L287.06 380.07L286.97 379.71L286.89 379.35L286.82 378.99L286.76 378.63L286.7 378.26L286.66 377.89L286.63 377.52L286.6 377.14L286.59 376.77L286.58 376.39L286.58 280.84L286.59 280.46L286.6 280.09L286.63 279.71L286.66 279.34L286.7 278.97L286.76 278.6L286.82 278.24L286.89 277.87L286.97 277.52L287.06 277.16L287.16 276.81L287.27 276.46L287.38 276.12L287.51 275.78L287.64 275.44L287.79 275.11L287.94 274.78L288.1 274.45L288.26 274.13L288.44 273.82L288.63 273.51L288.82 273.2L289.02 272.9L289.23 272.61L289.45 272.32L289.67 272.03L289.9 271.75L290.14 271.48L290.39 271.21L290.65 270.95L290.91 270.69L291.18 270.45L291.46 270.2L291.74 269.97L292.03 269.74L292.33 269.51L292.64 269.3L292.95 269.09L293.27 268.89L293.59 268.7L293.92 268.51L294.26 268.33L294.6 268.17L294.94 268.01L295.28 267.86L295.62 267.73L295.97 267.6L296.32 267.48L296.67 267.37L297.02 267.27L297.37 267.18L297.73 267.1L298.09 267.03L298.44 266.97L298.8 266.91L299.16 266.87L299.52 266.84L299.88 266.81L300.25 266.8L300.61 266.8L300.97 266.8L301.33 266.81ZM300.59 280.21L300.59 280.21L300.57 280.21L300.56 280.21L300.56 280.21L300.55 280.21L300.53 280.21L300.53 280.22L300.52 280.22L300.51 280.22L300.5 280.22L300.5 280.22L300.49 280.22L300.48 280.23L300.47 280.23L300.46 280.23L300.45 280.23L300.44 280.24L300.43 280.24L300.42 280.24L300.42 280.25L300.41 280.25L300.4 280.25L300.39 280.26L300.38 280.26L300.37 280.26L300.37 280.27L300.36 280.27L300.35 280.27L300.34 280.28L300.33 280.28L300.32 280.29L300.31 280.29L300.3 280.3L300.29 280.3L300.27 280.32L300.25 280.33L300.23 280.34L300.21 280.36L300.19 280.37L300.17 280.39L300.16 280.4L300.14 280.42L300.13 280.43L300.11 280.45L300.1 280.46L300.09 280.48L300.08 280.49L300.07 280.51L300.06 280.52L300.05 280.54L300.04 280.55L300.04 280.57L300.03 280.58L300.02 280.6L300.02 280.61L300.01 280.63L300.01 280.64L300 280.65L300 280.67L300 280.68L299.99 280.69L299.99 280.71L299.99 280.72L299.99 280.73L299.99 280.75L299.99 280.76L299.99 280.77L299.98 280.78L299.98 280.79L299.98 280.8L299.98 280.81L299.98 280.82L299.98 280.84L299.98 376.39L299.98 376.4L299.98 376.42L299.98 376.43L299.98 376.44L299.98 376.45L299.99 376.46L299.99 376.47L299.99 376.48L299.99 376.49L299.99 376.51L299.99 376.52L299.99 376.53L300 376.55L300 376.56L300 376.58L300.01 376.59L300.01 376.6L300.02 376.62L300.02 376.63L300.03 376.65L300.04 376.66L300.04 376.68L300.05 376.69L300.06 376.71L300.07 376.72L300.08 376.74L300.09 376.75L300.1 376.77L300.11 376.78L300.13 376.8L300.14 376.81L300.16 376.83L300.17 376.84L300.19 376.86L300.21 376.87L300.23 376.88L300.25 376.9L300.27 376.91L300.29 376.93L300.32 376.94L300.34 376.95L300.36 376.96L300.38 376.97L300.41 376.98L300.43 376.99L300.45 376.99L300.47 377L300.49 377.01L300.51 377.01L300.53 377.01L300.55 377.02L300.56 377.02L300.58 377.02L300.6 377.02L300.62 377.02L300.63 377.02L300.65 377.02L300.67 377.02L300.68 377.02L300.7 377.01L300.71 377.01L300.73 377.01L300.74 377L300.76 377L300.77 376.99L300.78 376.99L300.8 376.99L300.81 376.98L300.82 376.98L300.83 376.97L300.84 376.97L300.85 376.96L300.86 376.95L300.87 376.95L300.88 376.94L300.89 376.94L300.91 376.93L300.92 376.93L383.66 329.15L383.67 329.15L383.68 329.14L383.69 329.13L383.7 329.13L383.71 329.12L383.72 329.12L383.73 329.11L383.74 329.1L383.75 329.1L383.76 329.09L383.77 329.08L383.78 329.07L383.79 329.06L383.8 329.05L383.81 329.04L383.82 329.03L383.83 329.02L383.84 329.01L383.85 329L383.86 328.98L383.87 328.97L383.88 328.96L383.89 328.94L383.9 328.93L383.91 328.91L383.92 328.9L383.92 328.88L383.93 328.86L383.94 328.84L383.94 328.82L383.95 328.8L383.95 328.78L383.96 328.76L383.96 328.74L383.97 328.72L383.97 328.69L383.97 328.67L383.97 328.64L383.97 328.61L383.97 328.59L383.97 328.56L383.97 328.54L383.97 328.51L383.96 328.49L383.96 328.47L383.95 328.45L383.95 328.43L383.94 328.41L383.94 328.39L383.93 328.37L383.92 328.35L383.92 328.33L383.91 328.32L383.9 328.3L383.89 328.29L383.88 328.27L383.87 328.26L383.86 328.24L383.85 328.23L383.84 328.22L383.83 328.21L383.82 328.2L383.81 328.19L383.8 328.18L383.79 328.17L383.78 328.16L383.77 328.15L383.76 328.14L383.75 328.13L383.74 328.13L383.73 328.12L383.72 328.11L383.71 328.11L383.7 328.1L383.69 328.1L383.69 328.09L383.68 328.08L383.66 328.08L300.92 280.3L300.9 280.29L300.89 280.29L300.87 280.28L300.86 280.27L300.84 280.26L300.84 280.26L300.83 280.26L300.82 280.25L300.81 280.25L300.8 280.25L300.79 280.24L300.79 280.24L300.78 280.24L300.77 280.23L300.76 280.23L300.75 280.23L300.75 280.23L300.74 280.22L300.73 280.22L300.72 280.22L300.71 280.22L300.7 280.22L300.69 280.22L300.68 280.21L300.67 280.21L300.66 280.21L300.65 280.21L300.64 280.21L300.63 280.21L300.62 280.21L300.61 280.21L300.6 280.21L300.59 280.21Z" id="c3GIWzjVz"></path></defs><g><g><g><use xlink:href="#b2XyzB44rO" opacity="1" fill="#fff" fill-opacity="1"></use><g><use xlink:href="#b2XyzB44rO" opacity="1" fill-opacity="0" stroke="#fff" stroke-width="1" stroke-opacity="0"></use></g></g><g><use xlink:href="#aBFDuMsFo" opacity="1" fill="#fff" fill-opacity="1"></use><g><use xlink:href="#aBFDuMsFo" opacity="1" fill-opacity="0" stroke="#fff" stroke-width="1" stroke-opacity="0"></use></g></g><g><use xlink:href="#a2xjSW9FP" opacity="1" fill="#fff" fill-opacity="1"></use><g><use xlink:href="#a2xjSW9FP" opacity="1" fill-opacity="0" stroke="#fff" stroke-width="6" stroke-opacity="1"></use></g></g><g><use xlink:href="#c3GIWzjVz" opacity="1" fill="#fff" fill-opacity="1"></use><g><use xlink:href="#c3GIWzjVz" opacity="1" fill-opacity="0" stroke="#fff" stroke-width="6" stroke-opacity="0.99"></use></g></g></g></g></svg>